<svg width="16" height="16" viewBox="0 0 16 16" fill="none" xmlns="http://www.w3.org/2000/svg">
    <path d="M9.571 2c-1.705 0-3.34.685-4.545 1.904A6.537 6.537 0 0 0 3.143 8.5H1l2.779 2.81.05.1L6.714 8.5H4.571c0-2.795 2.236-5.056 5-5.056 2.765 0 5 2.261 5 5.056s-2.235 5.056-5 5.056a4.933 4.933 0 0 1-3.528-1.488l-1.014 1.025a6.392 6.392 0 0 0 2.082 1.413c.78.327 1.616.495 2.46.494 1.705 0 3.34-.685 4.546-1.904A6.537 6.537 0 0 0 16 8.5a6.537 6.537 0 0 0-1.883-4.596A6.393 6.393 0 0 0 9.571 2zm-.714 3.611v3.611l3.036 1.82.55-.924-2.514-1.51V5.611H8.857z" fill="#83878A"/>
</svg>
